<?xml version="1.0" encoding="UTF-8"?>
<svg id="Layer_1" data-name="Layer 1" xmlns="http://www.w3.org/2000/svg" viewBox="0 0 1920.42 176.33">
  <defs>
    <style>
      .cls-1 {
        fill: #1f77b7;
      }

      .cls-2 {
        fill: #1a183f;
      }

      .cls-3 {
        fill: #21b3e8;
      }
    </style>
  </defs>
  <path class="cls-2" d="M0,174.87V1.22h40.11v74.84L103.7,1.22h45l-65.06,77.53,69.46,96.12h-45.73l-49.16-69.95-18.1,18.83v51.11H0Z"/>
  <path class="cls-2" d="M248.85,75.57v99.3h-40.11V1.22h31.31l80.95,101.99V1.22h40.11v173.64h-32.28l-79.97-99.3Z"/>
  <path class="cls-2" d="M479.81,1.22h36.2l63.35,173.64h-41.09l-13.45-38.88h-54.05l-13.21,38.88h-41.09L479.81,1.22ZM518.21,108.34l-20.3-61.38-20.79,61.38h41.09Z"/>
  <path class="cls-2" d="M634.73,86.33c0-10.43,1.96-20.82,5.87-31.18,3.91-10.35,9.62-19.61,17.12-27.76,7.5-8.15,16.63-14.76,27.39-19.81C695.87,2.53,708.1,0,721.79,0c16.3,0,30.45,3.51,42.43,10.52,11.99,7.02,20.91,16.14,26.78,27.39l-30.82,21.52c-1.96-4.56-4.44-8.35-7.46-11.37-3.02-3.02-6.32-5.46-9.91-7.34-3.59-1.87-7.26-3.18-11.01-3.91-3.75-.73-7.42-1.1-11-1.1-7.67,0-14.35,1.55-20.06,4.65-5.71,3.1-10.44,7.09-14.19,11.98-3.75,4.89-6.52,10.44-8.31,16.63-1.8,6.2-2.7,12.47-2.7,18.83,0,6.85,1.06,13.45,3.18,19.82,2.12,6.35,5.18,11.98,9.17,16.87,3.99,4.89,8.8,8.77,14.43,11.62,5.62,2.85,11.94,4.28,18.95,4.28,3.59,0,7.3-.45,11.13-1.35,3.83-.89,7.5-2.28,11.01-4.16,3.5-1.87,6.72-4.32,9.66-7.34,2.93-3.02,5.29-6.73,7.09-11.13l32.77,19.32c-2.61,6.35-6.49,12.07-11.62,17.12-5.14,5.05-11.05,9.29-17.73,12.71-6.69,3.42-13.78,6.03-21.28,7.83-7.5,1.79-14.84,2.69-22.01,2.69-12.56,0-24.09-2.57-34.61-7.7-10.52-5.14-19.56-11.94-27.14-20.42-7.58-8.47-13.45-18.09-17.61-28.86-4.16-10.76-6.24-21.68-6.24-32.77Z"/>
  <path class="cls-2" d="M1238.51,176.33c-12.88,0-24.62-2.53-35.22-7.58-10.6-5.05-19.65-11.7-27.15-19.93-7.5-8.23-13.33-17.65-17.49-28.25-4.16-10.59-6.24-21.52-6.24-32.77s2.16-22.41,6.48-33.01c4.32-10.6,10.35-19.93,18.1-28.01,7.74-8.07,16.92-14.51,27.52-19.32,10.59-4.81,22.17-7.22,34.73-7.22s24.62,2.53,35.21,7.58c10.6,5.05,19.65,11.74,27.15,20.05,7.5,8.32,13.28,17.78,17.36,28.37,4.08,10.6,6.12,21.36,6.12,32.28s-2.17,22.42-6.49,33.02c-4.32,10.59-10.31,19.93-17.98,28-7.66,8.07-16.79,14.55-27.39,19.44-10.6,4.89-22.18,7.34-34.73,7.34ZM1193.26,88.29c0,6.69.98,13.17,2.94,19.44,1.96,6.28,4.85,11.86,8.68,16.75,3.83,4.89,8.6,8.8,14.31,11.74,5.71,2.93,12.23,4.4,19.57,4.4s14.34-1.55,20.06-4.65c5.7-3.1,10.43-7.13,14.18-12.11,3.75-4.97,6.56-10.6,8.44-16.88,1.87-6.28,2.81-12.68,2.81-19.2s-.98-13.17-2.93-19.44c-1.96-6.28-4.89-11.82-8.81-16.63-3.91-4.8-8.68-8.64-14.31-11.49-5.62-2.85-12.11-4.28-19.44-4.28s-14.31,1.51-19.93,4.52c-5.63,3.02-10.36,6.97-14.19,11.86-3.83,4.89-6.69,10.48-8.56,16.75-1.87,6.28-2.81,12.68-2.81,19.2Z"/>
  <path class="cls-2" d="M1380.46,174.87V1.22h78.27c8.15,0,15.69,1.71,22.62,5.14,6.93,3.42,12.92,7.91,17.98,13.45,5.05,5.55,9,11.82,11.86,18.83,2.85,7.02,4.28,14.1,4.28,21.27,0,5.39-.65,10.56-1.96,15.54-1.31,4.97-3.18,9.66-5.63,14.06-2.45,4.4-5.42,8.36-8.93,11.86-3.51,3.51-7.46,6.49-11.86,8.93l38.16,64.57h-45.25l-33.26-56.01h-26.17v56.01h-40.11ZM1420.57,83.89h36.69c4.72,0,8.8-2.24,12.22-6.73,3.43-4.48,5.14-10.23,5.14-17.24s-1.96-12.88-5.87-17.12c-3.91-4.23-8.15-6.35-12.71-6.35h-35.46v47.44Z"/>
  <path class="cls-2" d="M1709.75,157.75c-13.21,12.23-28.45,18.34-45.74,18.34-11.41,0-22.18-2.16-32.28-6.49-10.12-4.31-18.96-10.39-26.54-18.22-7.58-7.83-13.58-17.24-17.98-28.25-4.4-11-6.61-23.11-6.61-36.31,0-11.9,2.21-23.15,6.61-33.75,4.4-10.59,10.47-19.81,18.22-27.63,7.74-7.83,16.91-14.02,27.51-18.59,10.6-4.56,22.01-6.84,34.24-6.84,16.14,0,30.24,3.38,42.31,10.15,12.07,6.77,21.12,16.02,27.15,27.76l-29.84,22.5c-3.91-7.83-9.58-13.9-16.99-18.22-7.42-4.32-15.45-6.49-24.09-6.49-6.68,0-12.75,1.35-18.22,4.04-5.46,2.69-10.15,6.45-14.06,11.25-3.91,4.82-6.93,10.4-9.05,16.75-2.12,6.36-3.18,13.21-3.18,20.55s1.14,14.43,3.43,20.79c2.28,6.35,5.46,11.86,9.53,16.5,4.08,4.65,8.93,8.28,14.55,10.88,5.63,2.61,11.86,3.91,18.71,3.91,15.65,0,29.76-7.25,42.31-21.77v-5.38h-33.75v-29.11h67.01v90.74h-33.26v-17.12Z"/>
  <path class="cls-2" d="M1920.42,139.65v35.22h-122.04V1.22h119.84v35.22h-79.72v33.75h68.48v32.53h-68.48v36.93h81.93Z"/>
  <polygon class="cls-3" points="970.34 88.05 922.32 88.05 848.33 1.22 896.35 1.22 970.34 88.05"/>
  <polygon class="cls-1" points="848.33 174.87 896.35 174.87 970.34 88.05 922.32 88.05 848.33 174.87"/>
  <g>
    <polygon class="cls-2" points="979.17 1.22 979.17 174.87 1019.29 174.87 1019.29 121.64 1019.29 106.38 1019.29 73.86 1019.29 66.17 1019.29 36.44 1097.05 36.44 1097.05 1.22 979.17 1.22"/>
    <rect class="cls-2" x="1038.11" y="73.86" width="45.25" height="32.52"/>
  </g>
</svg>